<svg width="51" height="49" viewBox="0 0 51 49" fill="none" xmlns="http://www.w3.org/2000/svg">
<path d="M32.9027 13.6064C32.9027 16.2808 31.9684 18.7749 30.7647 20.8784C28.384 25.0391 22.6675 25.0391 20.2867 20.8784C19.0831 18.7749 18.1487 16.2808 18.1487 13.6064C18.1487 6.09181 21.4515 0 25.5257 0C29.5999 0 32.9027 6.09181 32.9027 13.6064Z" fill="#FFDDE5"/>
<path d="M17.4997 13.9641C20.0432 14.7906 22.1265 16.4499 23.7551 18.2447C26.9764 21.7946 25.2099 27.2313 20.5172 28.2098C18.1448 28.7046 15.484 28.8224 12.9405 27.996C5.79365 25.6739 1.02062 20.6502 2.27961 16.7755C3.53861 12.9007 10.3529 11.642 17.4997 13.9641Z" fill="#FFDDE5"/>
<path d="M13.6009 28.6392C15.1728 26.4756 17.3948 25.007 19.6049 24.0127C23.9766 22.0461 28.6013 25.4061 28.0818 30.1715C27.8192 32.5808 27.109 35.1478 25.5371 37.3114C21.1201 43.3908 14.8674 46.3779 11.5713 43.9831C8.27524 41.5884 9.1839 34.7187 13.6009 28.6392Z" fill="#FFDDE5"/>
<path d="M25.5309 37.2404C23.959 35.0768 23.2489 32.5098 22.9862 30.1005C22.4667 25.3351 27.0915 21.9751 31.4631 23.9417C33.6733 24.936 35.8952 26.4046 37.4671 28.5682C41.8841 34.6477 42.7928 41.5174 39.4967 43.9121C36.2006 46.3069 29.9479 43.3198 25.5309 37.2404Z" fill="#FFDDE5"/>
<path d="M38.0596 28.039C35.5161 28.8654 32.8553 28.7475 30.4828 28.2528C25.7901 27.2743 24.0236 21.8376 27.2449 18.2876C28.8735 16.4929 30.9569 14.8335 33.5003 14.0071C40.6472 11.685 47.4614 12.9436 48.7204 16.8184C49.9794 20.6932 45.2064 25.7168 38.0596 28.039Z" fill="#FFDDE5"/>
</svg>
