<svg width="158" height="43" viewBox="0 0 158 43" fill="none" xmlns="http://www.w3.org/2000/svg">
<g opacity="0.9">
<rect width="158" height="43" rx="16" fill="#00B207"/>
<path d="M27.875 26.5V25.5625C27.875 24.4297 29.1071 23.3582 29.9063 22.5938C31.0328 21.5168 31.625 20.0699 31.625 18.375C31.625 15.25 29.1356 12.75 26 12.75C25.2608 12.748 24.5284 12.892 23.845 13.174C23.1616 13.456 22.5407 13.8702 22.0179 14.3929C21.4952 14.9157 21.081 15.5366 20.799 16.22C20.517 16.9034 20.373 17.6358 20.375 18.375C20.375 20.0094 20.9926 21.5543 22.0938 22.5938C22.8887 23.3442 24.125 24.418 24.125 25.5625V26.5M24.75 30.25H27.25M24.125 28.375H27.875M26 26.5V21.5" stroke="white" stroke-width="1.25" stroke-linecap="round" stroke-linejoin="round"/>
<path d="M27.4844 20.875C27.4844 20.875 26.6441 21.5 26 21.5C25.3559 21.5 24.5156 20.875 24.5156 20.875" stroke="white" stroke-width="1.25" stroke-linecap="round" stroke-linejoin="round"/>
<path d="M57.5176 20.7754V22.5508H52.877V25.9609H59.1172V27.7891H44.4746V25.9609H50.6445V22.5508H46.1973V14.7461H57.3945V16.5391H48.4473V20.7754H57.5176ZM67.3262 13.832C70.877 13.8496 73.127 14.9922 73.1445 16.9434C73.127 18.8418 70.877 19.9844 67.3262 19.9844C63.793 19.9844 61.4902 18.8418 61.4902 16.9434C61.4902 14.9922 63.793 13.8496 67.3262 13.832ZM67.3262 15.5547C65.0938 15.5547 63.8105 16.0117 63.8281 16.9434C63.8105 17.8223 65.0938 18.2793 67.3262 18.2793C69.541 18.2793 70.8242 17.8223 70.8242 16.9434C70.8242 16.0117 69.541 15.5547 67.3262 15.5547ZM72.8809 23.9922V29.4414H61.7188V23.9922H66.2012V22.6035H60.0312V20.8105H74.6211V22.6035H68.4336V23.9922H72.8809ZM63.9336 25.7676V27.6484H70.6836V25.7676H63.9336ZM88.2793 13.6211V17.2598H90.4414V19.1055H88.2793V22.9551H86.0293V13.6211H88.2793ZM78.2949 14.5527V16.5918H81.5645V14.5527H83.8145V22.1641H76.0625V14.5527H78.2949ZM78.2949 20.4062H81.5645V18.332H78.2949V20.4062ZM88.3672 23.6758V25.4512H80.0527V27.6484H88.666V29.4062H77.8203V23.6758H88.3672ZM95.4512 14.7461C97.8945 14.7461 99.6523 16.9609 99.6699 20.4414C99.6523 23.957 97.8945 26.1543 95.4512 26.1543C93.0078 26.1543 91.2148 23.957 91.2324 20.4414C91.2148 16.9609 93.0078 14.7461 95.4512 14.7461ZM95.4512 16.7676C94.2207 16.7676 93.3945 18.0684 93.3945 20.4414C93.3945 22.832 94.2207 24.1152 95.4512 24.1152C96.6992 24.1152 97.5078 22.832 97.5254 20.4414C97.5078 18.0684 96.6992 16.7676 95.4512 16.7676ZM103.766 13.6211V19.6504H106.121V21.5137H103.766V29.6172H101.516V13.6211H103.766ZM116.07 16.6094C116.07 18.1475 116.642 19.8701 118.145 20.9512C119.639 19.8789 120.219 18.1562 120.219 16.6094V14.7637H122.486V16.6094C122.469 18.543 123.312 20.5117 125.527 21.4082L124.332 23.0781C122.847 22.4453 121.889 21.3115 121.344 19.9141C120.772 21.3906 119.762 22.6387 118.145 23.3066C116.51 22.6475 115.49 21.3818 114.928 19.8965C114.365 21.2852 113.398 22.4365 111.939 23.0781L110.779 21.4082C112.924 20.4766 113.82 18.4727 113.82 16.6094V14.7637H116.07V16.6094ZM125.439 25.8203V27.6309H110.85V25.8203H125.439ZM139.854 13.6211V29.6172H137.586V13.6211H139.854ZM135.055 15.291C135.055 20.1426 133.35 24.168 127.637 26.875L126.459 25.082C130.59 23.1309 132.409 20.5996 132.77 17.0488H127.32V15.291H135.055Z" fill="white"/>
</g>
</svg>
