<svg width="36" height="36" viewBox="0 0 36 36" fill="none" xmlns="http://www.w3.org/2000/svg">
<path d="M18.3909 7.12124C18.2863 7.0211 18.147 6.96521 18.0021 6.96521C17.8572 6.96521 17.718 7.0211 17.6133 7.12124L4.66875 19.4871C4.61377 19.5397 4.57004 19.6029 4.54019 19.6729C4.51034 19.7428 4.49499 19.8181 4.49507 19.8942L4.49297 31.5C4.49297 32.0967 4.73002 32.669 5.15198 33.091C5.57393 33.5129 6.14623 33.75 6.74297 33.75H13.5C13.7984 33.75 14.0845 33.6315 14.2955 33.4205C14.5065 33.2095 14.625 32.9234 14.625 32.625V23.0625C14.625 22.9133 14.6843 22.7702 14.7897 22.6647C14.8952 22.5593 15.0383 22.5 15.1875 22.5H20.8125C20.9617 22.5 21.1048 22.5593 21.2102 22.6647C21.3157 22.7702 21.375 22.9133 21.375 23.0625V32.625C21.375 32.9234 21.4935 33.2095 21.7045 33.4205C21.9155 33.6315 22.2016 33.75 22.5 33.75H29.2542C29.851 33.75 30.4232 33.5129 30.8452 33.091C31.2672 32.669 31.5042 32.0967 31.5042 31.5V19.8942C31.5043 19.8181 31.489 19.7428 31.4591 19.6729C31.4293 19.6029 31.3855 19.5397 31.3305 19.4871L18.3909 7.12124Z" fill="#ABADB3"/>
<path d="M34.5171 17.1668L29.2577 12.1352V4.5C29.2577 4.20163 29.1392 3.91548 28.9282 3.7045C28.7172 3.49353 28.4311 3.375 28.1327 3.375H24.7577C24.4594 3.375 24.1732 3.49353 23.9622 3.7045C23.7513 3.91548 23.6327 4.20163 23.6327 4.5V6.75L19.5602 2.85609C19.1791 2.47078 18.6124 2.25 18 2.25C17.3897 2.25 16.8244 2.47078 16.4433 2.8568L1.48781 17.1654C1.05046 17.5873 0.995621 18.2812 1.39359 18.7383C1.49353 18.8536 1.61589 18.9475 1.75324 19.014C1.89058 19.0806 2.04004 19.1185 2.19251 19.1255C2.34498 19.1325 2.49727 19.1083 2.64012 19.0546C2.78297 19.0008 2.91339 18.9186 3.02343 18.8128L17.6133 4.87125C17.718 4.77111 17.8572 4.71522 18.0021 4.71522C18.147 4.71522 18.2863 4.77111 18.3909 4.87125L32.9822 18.8128C33.1971 19.0189 33.485 19.1314 33.7828 19.1256C34.0805 19.1198 34.3638 18.9962 34.5705 18.7819C35.0023 18.3347 34.9664 17.5964 34.5171 17.1668Z" fill="#ABADB3"/>
</svg>
