<svg width="30" height="30" viewBox="0 0 30 30" fill="none" xmlns="http://www.w3.org/2000/svg">
<g id="ion:book-outline">
<path id="Vector" d="M15 9.37501C15.9375 5.67423 19.4783 3.78458 27.1875 3.75001C27.3108 3.74954 27.4329 3.77347 27.5468 3.82042C27.6608 3.86737 27.7643 3.93641 27.8515 4.02356C27.9386 4.11071 28.0076 4.21424 28.0546 4.32819C28.1015 4.44214 28.1255 4.56426 28.125 4.68751V21.5625C28.125 21.8111 28.0262 22.0496 27.8504 22.2254C27.6746 22.4012 27.4361 22.5 27.1875 22.5C19.6875 22.5 16.79 24.0123 15 26.25M15 9.37501C14.0625 5.67423 10.5217 3.78458 2.81251 3.75001C2.68926 3.74954 2.56714 3.77347 2.45319 3.82042C2.33924 3.86737 2.23571 3.93641 2.14856 4.02356C2.06141 4.11071 1.99237 4.21424 1.94542 4.32819C1.89847 4.44214 1.87454 4.56426 1.87501 4.68751V21.4494C1.87501 22.0283 2.2336 22.5 2.81251 22.5C10.3125 22.5 13.2205 24.0234 15 26.25M15 9.37501V26.25" stroke="#83858A" stroke-width="1.875" stroke-linecap="round" stroke-linejoin="round"/>
</g>
</svg>
