<svg width="24" height="24" viewBox="0 0 24 24" fill="none" xmlns="http://www.w3.org/2000/svg">
<g id="ion:chatbubble-ellipses-outline">
<path id="Vector" d="M4.10061 17.8125C4.15686 17.6072 4.03358 17.3217 3.91593 17.1159C3.87942 17.0545 3.83968 16.995 3.79686 16.9378C2.78774 15.4075 2.2499 13.6147 2.24999 11.7816C2.23311 6.51984 6.59624 2.25 11.9916 2.25C16.6969 2.25 20.625 5.50969 21.5423 9.83672C21.68 10.4782 21.7496 11.1325 21.75 11.7886C21.75 17.0578 17.5551 21.3947 12.1598 21.3947C11.3016 21.3947 10.1442 21.1791 9.5128 21.0023C8.88139 20.8256 8.25093 20.5913 8.08827 20.5284C7.92176 20.4644 7.74493 20.4316 7.56655 20.4314C7.37204 20.4307 7.17941 20.4695 7.0003 20.5453L3.8203 21.6928C3.75079 21.7228 3.67714 21.7421 3.60186 21.75C3.54231 21.7498 3.48338 21.7378 3.42849 21.7147C3.3736 21.6916 3.32383 21.6579 3.28207 21.6154C3.24031 21.573 3.20738 21.5226 3.18519 21.4674C3.163 21.4121 3.15199 21.353 3.1528 21.2934C3.15676 21.2412 3.16619 21.1895 3.18093 21.1392L4.10061 17.8125Z" stroke="#ABADB3" stroke-width="1.5" stroke-miterlimit="10" stroke-linecap="round"/>
<path id="Vector_2" d="M7.5 13.5C8.32843 13.5 9 12.8284 9 12C9 11.1716 8.32843 10.5 7.5 10.5C6.67157 10.5 6 11.1716 6 12C6 12.8284 6.67157 13.5 7.5 13.5Z" fill="#ABADB3"/>
<path id="Vector_3" d="M12 13.5C12.8284 13.5 13.5 12.8284 13.5 12C13.5 11.1716 12.8284 10.5 12 10.5C11.1716 10.5 10.5 11.1716 10.5 12C10.5 12.8284 11.1716 13.5 12 13.5Z" fill="#ABADB3"/>
<path id="Vector_4" d="M16.5 13.5C17.3284 13.5 18 12.8284 18 12C18 11.1716 17.3284 10.5 16.5 10.5C15.6716 10.5 15 11.1716 15 12C15 12.8284 15.6716 13.5 16.5 13.5Z" fill="#ABADB3"/>
</g>
</svg>
