<svg width="24" height="24" viewBox="0 0 24 24" fill="none" xmlns="http://www.w3.org/2000/svg">
<g id="ion:notifications-outline">
<path id="Vector" d="M15 18V18.75C15 19.5456 14.6839 20.3087 14.1213 20.8713C13.5587 21.4339 12.7957 21.75 12 21.75C11.2044 21.75 10.4413 21.4339 9.87868 20.8713C9.31607 20.3087 9 19.5456 9 18.75V18M20.0475 16.4733C18.8438 15 17.9939 14.25 17.9939 10.1883C17.9939 6.46875 16.0945 5.14359 14.5313 4.5C14.3236 4.41469 14.1281 4.21875 14.0648 4.00547C13.7906 3.07219 13.0219 2.25 12 2.25C10.9781 2.25 10.2089 3.07266 9.9375 4.00641C9.87422 4.22203 9.67875 4.41469 9.4711 4.5C7.90594 5.14453 6.00844 6.465 6.00844 10.1883C6.0061 14.25 5.15625 15 3.9525 16.4733C3.45375 17.0836 3.89063 18 4.76297 18H19.2417C20.1094 18 20.5434 17.0808 20.0475 16.4733Z" stroke="#353638" stroke-width="1.5" stroke-linecap="round" stroke-linejoin="round"/>
</g>
</svg>
