<svg width="30" height="30" viewBox="0 0 30 30" fill="none" xmlns="http://www.w3.org/2000/svg">
<g id="ion:location-outline">
<path id="Vector" d="M15 2.8125C10.3418 2.8125 6.5625 6.40957 6.5625 10.8398C6.5625 15.9375 12.1875 24.0158 14.2529 26.8061C14.3387 26.9238 14.451 27.0197 14.5809 27.0858C14.7107 27.1518 14.8543 27.1863 15 27.1863C15.1457 27.1863 15.2893 27.1518 15.4191 27.0858C15.549 27.0197 15.6613 26.9238 15.7471 26.8061C17.8125 24.017 23.4375 15.9416 23.4375 10.8398C23.4375 6.40957 19.6582 2.8125 15 2.8125Z" stroke="#353638" stroke-width="1.875" stroke-linecap="round" stroke-linejoin="round"/>
<path id="Vector_2" d="M15 14.0625C16.5533 14.0625 17.8125 12.8033 17.8125 11.25C17.8125 9.6967 16.5533 8.4375 15 8.4375C13.4467 8.4375 12.1875 9.6967 12.1875 11.25C12.1875 12.8033 13.4467 14.0625 15 14.0625Z" stroke="#353638" stroke-width="1.875" stroke-linecap="round" stroke-linejoin="round"/>
</g>
</svg>
