<svg xmlns="http://www.w3.org/2000/svg" width="16" height="16" viewBox="0 0 16 16" fill="none">
  <path d="M1 8H3.5V15H1V8ZM11.5 15H4.5V7.5985L6.021 5.317L6.4435 2.3585C6.47856 2.12056 6.59779 1.90308 6.77953 1.74555C6.96128 1.58803 7.19349 1.5009 7.434 1.5H7.5C7.8977 1.5004 8.279 1.65856 8.56022 1.93978C8.84144 2.221 8.9996 2.6023 9 3V6H13C13.5302 6.00066 14.0386 6.21159 14.4135 6.58652C14.7884 6.96145 14.9993 7.46977 15 8V11.5C14.9989 12.4279 14.6299 13.3176 13.9737 13.9737C13.3176 14.6299 12.4279 14.9989 11.5 15Z" fill="#FF2259"/>
</svg>