<svg xmlns="http://www.w3.org/2000/svg" width="22" height="22" viewBox="0 0 22 22" fill="none">
  <path d="M14.375 5.00011V20.7501M7.625 1.25011V17.0001M13.6845 4.84261L8.31547 1.40761C8.1019 1.30093 7.86595 1.24677 7.62723 1.24962C7.38852 1.25247 7.15393 1.31226 6.94297 1.42402L1.64891 4.97621C1.52846 5.04001 1.42769 5.13543 1.3574 5.25221C1.28712 5.369 1.24999 5.50272 1.25 5.63902V19.5046C1.24999 19.634 1.28343 19.7611 1.34707 19.8737C1.41071 19.9863 1.50239 20.0806 1.6132 20.1473C1.72402 20.214 1.8502 20.2509 1.97949 20.2544C2.10879 20.258 2.2368 20.228 2.35109 20.1675L6.93641 17.1773C7.14909 17.0646 7.38576 17.0048 7.62644 17.0028C7.86712 17.0009 8.10473 17.0568 8.31922 17.1661L13.5627 20.5879C13.7753 20.6963 14.0107 20.7523 14.2493 20.7514C14.4879 20.7505 14.7229 20.6927 14.9347 20.5828L20.3455 17.0231C20.4674 16.9598 20.5696 16.8643 20.6409 16.7469C20.7123 16.6295 20.75 16.4948 20.75 16.3575V2.49558C20.75 2.36624 20.7166 2.23909 20.6529 2.12649C20.5893 2.01389 20.4976 1.91966 20.3868 1.85295C20.276 1.78625 20.1498 1.74933 20.0205 1.7458C19.8912 1.74226 19.7632 1.77222 19.6489 1.83277L15.0552 4.82621C14.8444 4.93765 14.6102 4.99727 14.3718 5.00013C14.1335 5.00298 13.8979 4.94898 13.6845 4.84261Z" stroke="#D1D3D9" stroke-width="1.5" stroke-linecap="round" stroke-linejoin="round"/>
</svg>