<svg width="127" height="43" viewBox="0 0 127 43" fill="none" xmlns="http://www.w3.org/2000/svg">
<g opacity="0.9">
<rect width="127" height="43" rx="16" fill="#00B207"/>
<path d="M30.2238 16.3928L19.3984 27.2424L18.5 29.0002L20.2574 28.1018L31.1074 17.2764L30.2238 16.3928ZM32.4332 14.1834L31.5496 15.067L32.4332 15.951L33.3168 15.067C33.4339 14.9498 33.4997 14.7909 33.4997 14.6252C33.4997 14.4595 33.4339 14.3006 33.3168 14.1834C33.1996 14.0663 33.0407 14.0005 32.875 14.0005C32.7093 14.0005 32.5504 14.0663 32.4332 14.1834Z" stroke="white" stroke-width="1.25" stroke-linecap="round" stroke-linejoin="round"/>
<path d="M58.2734 13.6211V29.6172H56.1113V21.6191H54.6172V28.8438H52.5078V13.8848H54.6172V19.8086H56.1113V13.6211H58.2734ZM47.375 15.3965V23.7461C48.6582 23.7197 50.0645 23.6055 51.6113 23.3066L51.8398 25.2402C49.6953 25.6094 47.8672 25.7148 46.2148 25.7148H45.125V15.3965H47.375ZM72.6523 13.6211V19.7559H74.9199V21.6016H72.6523V29.582H70.4023V13.6211H72.6523ZM68.3809 15.2559C68.3633 20.0371 66.5 24.1855 61.1211 26.8223L59.8555 25.0996C63.6436 23.2012 65.6738 20.6523 66.0957 17.084H60.7695V15.2559H68.3809ZM84.957 16.6094C84.957 18.1475 85.5283 19.8701 87.0312 20.9512C88.5254 19.8789 89.1055 18.1562 89.1055 16.6094V14.7637H91.373V16.6094C91.3555 18.543 92.1992 20.5117 94.4141 21.4082L93.2188 23.0781C91.7334 22.4453 90.7754 21.3115 90.2305 19.9141C89.6592 21.3906 88.6484 22.6387 87.0312 23.3066C85.3965 22.6475 84.377 21.3818 83.8145 19.8965C83.252 21.2852 82.2852 22.4365 80.8262 23.0781L79.666 21.4082C81.8105 20.4766 82.707 18.4727 82.707 16.6094V14.7637H84.957V16.6094ZM94.3262 25.8203V27.6309H79.7363V25.8203H94.3262ZM108.74 13.6211V29.6172H106.473V13.6211H108.74ZM103.941 15.291C103.941 20.1426 102.236 24.168 96.5234 26.875L95.3457 25.082C99.4766 23.1309 101.296 20.5996 101.656 17.0488H96.207V15.291H103.941Z" fill="white"/>
</g>
</svg>
