<svg width="36" height="36" viewBox="0 0 36 36" fill="none" xmlns="http://www.w3.org/2000/svg">
<path d="M25.875 6.75H10.125C9.82663 6.75 9.54048 6.63147 9.3295 6.42049C9.11853 6.20952 9 5.92337 9 5.625C9 5.32663 9.11853 5.04048 9.3295 4.82951C9.54048 4.61853 9.82663 4.5 10.125 4.5H25.875C26.1734 4.5 26.4595 4.61853 26.6705 4.82951C26.8815 5.04048 27 5.32663 27 5.625C27 5.92337 26.8815 6.20952 26.6705 6.42049C26.4595 6.63147 26.1734 6.75 25.875 6.75ZM28.125 10.125H7.875C7.57663 10.125 7.29048 10.0065 7.0795 9.7955C6.86853 9.58452 6.75 9.29837 6.75 9C6.75 8.70163 6.86853 8.41548 7.0795 8.2045C7.29048 7.99353 7.57663 7.875 7.875 7.875H28.125C28.4234 7.875 28.7095 7.99353 28.9205 8.2045C29.1315 8.41548 29.25 8.70163 29.25 9C29.25 9.29837 29.1315 9.58452 28.9205 9.7955C28.7095 10.0065 28.4234 10.125 28.125 10.125ZM29.4701 31.5H6.52992C5.69347 31.4991 4.89154 31.1664 4.30008 30.5749C3.70862 29.9835 3.37593 29.1815 3.375 28.3451V14.4049C3.37593 13.5685 3.70862 12.7665 4.30008 12.1751C4.89154 11.5836 5.69347 11.2509 6.52992 11.25H29.4701C30.3065 11.2509 31.1085 11.5836 31.6999 12.1751C32.2914 12.7665 32.6241 13.5685 32.625 14.4049V28.3451C32.6241 29.1815 32.2914 29.9835 31.6999 30.5749C31.1085 31.1664 30.3065 31.4991 29.4701 31.5Z" fill="black"/>
</svg>
