<svg width="70" height="57" viewBox="0 0 70 57" fill="none" xmlns="http://www.w3.org/2000/svg">
<g id="Group 986626">
<path id="Ellipse 1621" opacity="0.5" d="M54.5185 43.4748C50.1222 46.9918 44.3787 47.9474 39.8356 48.0457C35.4527 48.1406 32.3513 44.2639 33.4061 40.0088C34.4993 35.5981 36.6924 30.2045 41.0887 26.6875C49.639 19.8473 59.5767 18.0602 63.2852 22.6959C66.9938 27.3316 63.0687 36.6346 54.5185 43.4748Z" fill="white"/>
<path id="Ellipse 1622" opacity="0.5" d="M48.0055 24.133C49.0205 31.4504 45.8856 38.5489 42.9493 43.3584C40.6649 47.1001 35.7853 47.7769 32.5688 44.7982C28.4344 40.9694 23.4859 34.9921 22.471 27.6747C20.6671 14.6691 24.9209 3.33327 31.972 2.35526C39.0232 1.37726 46.2016 11.1275 48.0055 24.133Z" fill="white"/>
<path id="Ellipse 1623" opacity="0.5" d="M34.8045 22.6457C39.1105 28.6484 39.6424 36.3901 39.2839 42.0136C39.005 46.3887 35.002 49.2602 30.7684 48.1222C25.3266 46.6595 18.1637 43.6746 13.8576 37.6719C6.20433 27.0031 4.68921 14.9905 10.4735 10.8411C16.2578 6.69175 27.1512 11.9768 34.8045 22.6457Z" fill="white"/>
</g>
</svg>
