<svg width="36" height="36" viewBox="0 0 36 36" fill="none" xmlns="http://www.w3.org/2000/svg">
<path d="M12.9375 18C13.8695 18 14.625 17.2445 14.625 16.3125C14.625 15.3805 13.8695 14.625 12.9375 14.625C12.0055 14.625 11.25 15.3805 11.25 16.3125C11.25 17.2445 12.0055 18 12.9375 18Z" fill="#151515"/>
<path d="M18.0035 26.9999C14.8099 26.9999 12.124 24.9236 11.2739 22.09C11.2501 22.0057 11.2464 21.917 11.263 21.831C11.2795 21.7449 11.316 21.664 11.3694 21.5945C11.4228 21.525 11.4917 21.469 11.5706 21.4309C11.6495 21.3928 11.7362 21.3736 11.8238 21.3749H24.177C24.2646 21.3736 24.3513 21.3928 24.4301 21.4309C24.509 21.469 24.5779 21.525 24.6313 21.5945C24.6847 21.664 24.7212 21.7449 24.7378 21.831C24.7543 21.917 24.7506 22.0057 24.7268 22.09C23.8838 24.9236 21.1971 26.9999 18.0035 26.9999Z" fill="#151515"/>
<path d="M23.0625 18C23.9945 18 24.75 17.2445 24.75 16.3125C24.75 15.3805 23.9945 14.625 23.0625 14.625C22.1305 14.625 21.375 15.3805 21.375 16.3125C21.375 17.2445 22.1305 18 23.0625 18Z" fill="#151515"/>
<path d="M18 32.625C26.0772 32.625 32.625 26.0772 32.625 18C32.625 9.92284 26.0772 3.375 18 3.375C9.92284 3.375 3.375 9.92284 3.375 18C3.375 26.0772 9.92284 32.625 18 32.625Z" stroke="#151515" stroke-width="2.25" stroke-miterlimit="10"/>
</svg>
