<svg xmlns="http://www.w3.org/2000/svg" width="36" height="36" viewBox="0 0 30 30" fill="none">
  <path d="M10.7813 15C11.5579 15 12.1875 14.3704 12.1875 13.5938C12.1875 12.8171 11.5579 12.1875 10.7813 12.1875C10.0046 12.1875 9.37503 12.8171 9.37503 13.5938C9.37503 14.3704 10.0046 15 10.7813 15Z" fill="#83858A"/>
  <path d="M15.0029 22.5C12.3416 22.5 10.1033 20.7697 9.39494 18.4084C9.37513 18.3381 9.372 18.2642 9.38582 18.1925C9.39963 18.1208 9.43 18.0533 9.4745 17.9955C9.51901 17.9376 9.57642 17.8909 9.64215 17.8591C9.70789 17.8274 9.78014 17.8114 9.85314 17.8125H20.1475C20.2205 17.8114 20.2927 17.8274 20.3585 17.8591C20.4242 17.8909 20.4816 17.9376 20.5261 17.9955C20.5706 18.0533 20.601 18.1208 20.6148 18.1925C20.6286 18.2642 20.6255 18.3381 20.6057 18.4084C19.9031 20.7697 17.6643 22.5 15.0029 22.5Z" fill="#83858A"/>
  <path d="M19.2188 15C19.9954 15 20.625 14.3704 20.625 13.5938C20.625 12.8171 19.9954 12.1875 19.2188 12.1875C18.4421 12.1875 17.8125 12.8171 17.8125 13.5938C17.8125 14.3704 18.4421 15 19.2188 15Z" fill="#83858A"/>
  <path d="M15 27.1875C21.731 27.1875 27.1875 21.731 27.1875 15C27.1875 8.26903 21.731 2.8125 15 2.8125C8.26906 2.8125 2.81253 8.26903 2.81253 15C2.81253 21.731 8.26906 27.1875 15 27.1875Z" stroke="#83858A" stroke-width="1.875" stroke-miterlimit="10"/>
</svg>