<svg xmlns="http://www.w3.org/2000/svg" width="16" height="16" viewBox="0 0 16 16" fill="none">
  <path d="M14.0937 11.6876C13.5975 11.1876 12.3956 10.4579 11.8125 10.1639C11.0531 9.78137 10.9906 9.75012 10.3937 10.1936C9.99562 10.4895 9.73093 10.7539 9.265 10.6545C8.79906 10.5551 7.78656 9.99481 6.9 9.11106C6.01343 8.22731 5.42062 7.18544 5.32093 6.72106C5.22125 6.25669 5.49 5.99512 5.78312 5.59606C6.19625 5.03356 6.165 4.93981 5.81187 4.18044C5.53656 3.58981 4.78562 2.39919 4.28375 1.90544C3.74687 1.37512 3.74687 1.46887 3.40093 1.61262C3.11929 1.7311 2.84909 1.87514 2.59375 2.04294C2.09375 2.37512 1.81625 2.65106 1.62218 3.06575C1.42812 3.48044 1.34093 4.45262 2.34312 6.27325C3.34531 8.09387 4.04843 9.02481 5.50375 10.4761C6.95906 11.9273 8.07812 12.7076 9.71406 13.6251C11.7378 14.7586 12.5141 14.5376 12.93 14.3439C13.3459 14.1501 13.6231 13.8751 13.9559 13.3751C14.1242 13.1202 14.2685 12.8503 14.3872 12.5689C14.5312 12.2242 14.625 12.2242 14.0937 11.6876Z" stroke="black" stroke-miterlimit="10"/>
</svg>