<svg xmlns="http://www.w3.org/2000/svg" width="30" height="30" viewBox="0 0 30 30" fill="none">
  <path d="M26.25 15C26.25 8.78906 21.2109 3.75 15 3.75C8.78906 3.75 3.75 8.78906 3.75 15C3.75 21.2109 8.78906 26.25 15 26.25C21.2109 26.25 26.25 21.2109 26.25 15Z" stroke="white" stroke-width="1.875" stroke-miterlimit="10"/>
  <path d="M12.675 19.5961L19.3811 15.5449C19.4745 15.488 19.5518 15.4079 19.6054 15.3125C19.659 15.2171 19.6872 15.1095 19.6872 15C19.6872 14.8905 19.659 14.7829 19.6054 14.6875C19.5518 14.5921 19.4745 14.512 19.3811 14.4551L12.675 10.4039C12.5789 10.3463 12.4692 10.3153 12.3571 10.3141C12.2451 10.3129 12.1347 10.3416 12.0374 10.3971C11.9401 10.4526 11.8593 10.533 11.8033 10.6301C11.7473 10.7272 11.7181 10.8374 11.7188 10.9494V19.0506C11.7181 19.1626 11.7473 19.2728 11.8033 19.3699C11.8593 19.467 11.9401 19.5474 12.0374 19.6029C12.1347 19.6584 12.2451 19.687 12.3571 19.6859C12.4692 19.6847 12.5789 19.6537 12.675 19.5961Z" fill="white"/>
</svg>