<svg width="30" height="30" viewBox="0 0 30 30" fill="none" xmlns="http://www.w3.org/2000/svg">
<circle cx="15" cy="15" r="15" fill="#F2F4F5"/>
<path d="M17.5 9.70312C17.5 9.70312 18.4516 9.23438 15 9.23438C13.7639 9.23438 12.5555 9.60093 11.5277 10.2877C10.4999 10.9744 9.6988 11.9506 9.22576 13.0926C8.75271 14.2346 8.62894 15.4913 8.87009 16.7037C9.11125 17.9161 9.70651 19.0297 10.5806 19.9038C11.4547 20.7779 12.5683 21.3731 13.7807 21.6143C14.9931 21.8554 16.2497 21.7317 17.3918 21.2586C18.5338 20.7856 19.5099 19.9845 20.1967 18.9567C20.8834 17.9289 21.25 16.7205 21.25 15.4844" stroke="#5C5E62" stroke-width="1.25" stroke-miterlimit="10" stroke-linecap="round"/>
<path d="M15 6.26562L18.125 9.39062L15 12.5156" stroke="#5C5E62" stroke-width="1.25" stroke-linecap="round" stroke-linejoin="round"/>
</svg>
