<svg xmlns="http://www.w3.org/2000/svg" width="20" height="20" viewBox="0 0 20 20" fill="none">
  <path d="M10.0643 15.8334C8.43596 15.8334 7.05651 15.2686 5.92596 14.1392C4.79596 13.0092 4.23096 11.6303 4.23096 10.0025C4.23096 8.37474 4.79596 6.9953 5.92596 5.86419C7.05596 4.73308 8.4354 4.16724 10.0643 4.16669C11.0548 4.16669 11.9823 4.40196 12.8468 4.87252C13.7107 5.34308 14.4071 6.00002 14.936 6.84335V4.16669H15.7693V8.52502H11.411V7.69169H14.4943C14.0598 6.86113 13.4493 6.20474 12.6626 5.72252C11.876 5.2403 11.0098 4.99946 10.0643 5.00002C8.6754 5.00002 7.49485 5.48613 6.52262 6.45835C5.5504 7.43058 5.06429 8.61113 5.06429 10C5.06429 11.3889 5.5504 12.5695 6.52262 13.5417C7.49485 14.5139 8.6754 15 10.0643 15C11.1337 15 12.099 14.6945 12.9601 14.0834C13.8212 13.4722 14.4254 12.6667 14.7726 11.6667H15.6576C15.2898 12.9145 14.5915 13.9209 13.5626 14.6859C12.5337 15.4509 11.3676 15.8334 10.0643 15.8334Z" fill="#176C1B"/>
</svg>