<svg xmlns="http://www.w3.org/2000/svg" width="16" height="16" viewBox="0 0 16 16" fill="none">
  <path d="M13.0022 8.5C13.0022 7.51109 12.7089 6.54439 12.1595 5.72215C11.6101 4.8999 10.8292 4.25904 9.91561 3.8806C9.00197 3.50216 7.99664 3.40315 7.02674 3.59607C6.05683 3.789 5.16592 4.2652 4.46665 4.96447C3.76739 5.66373 3.29119 6.55464 3.09826 7.52455C2.90534 8.49445 3.00435 9.49979 3.38279 10.4134C3.76123 11.327 4.40209 12.1079 5.22434 12.6573C6.04658 13.2068 7.01328 13.5 8.00219 13.5C9.32827 13.5 10.6 12.9732 11.5377 12.0355C12.4754 11.0979 13.0022 9.82608 13.0022 8.5ZM4.44125 2.85031C4.17887 2.62579 3.84533 2.50165 3.5 2.5L3.41281 2.5025C2.61438 2.55063 2 3.25 2.00219 4.09375C2.00219 4.50656 2.14781 4.69906 2.34219 4.94469C2.35426 4.96047 2.36951 4.97355 2.38695 4.98307C2.40439 4.9926 2.42363 4.99837 2.44344 5H2.47094C2.48642 4.99972 2.50164 4.99589 2.5154 4.98879C2.52916 4.98169 2.54111 4.97152 2.55031 4.95906L4.44938 3.09375C4.46559 3.07735 4.47826 3.05779 4.48659 3.03629C4.49492 3.01478 4.49874 2.99179 4.49781 2.96875C4.49703 2.94618 4.4916 2.92402 4.48187 2.90364C4.47213 2.88326 4.45831 2.86511 4.44125 2.85031ZM11.5588 2.85031C11.8211 2.62579 12.1547 2.50165 12.5 2.5L12.5872 2.5025C13.3856 2.55063 14 3.25 13.9978 4.09375C13.9978 4.50656 13.8522 4.69906 13.6578 4.94469C13.6457 4.96041 13.6304 4.97343 13.613 4.9829C13.5956 4.99238 13.5763 4.99809 13.5566 4.99969H13.5291C13.5136 4.99941 13.4984 4.99557 13.4846 4.98848C13.4708 4.98138 13.4589 4.97121 13.4497 4.95875L11.5506 3.09375C11.5344 3.07735 11.5217 3.05779 11.5134 3.03629C11.5051 3.01478 11.5013 2.99179 11.5022 2.96875C11.503 2.94618 11.5084 2.92402 11.5181 2.90364C11.5279 2.88326 11.5417 2.86511 11.5588 2.85031Z" stroke="black" stroke-miterlimit="10"/>
  <path d="M8.00218 5V8.5H5.50218M13.0022 13.5L11.7522 12.25M3.00218 13.5L4.25218 12.25" stroke="black" stroke-linecap="round" stroke-linejoin="round"/>
</svg>