<svg xmlns="http://www.w3.org/2000/svg" width="16" height="16" viewBox="0 0 16 16" fill="none">
  <path d="M12.8488 3.04562C11.5134 1.74563 9.74625 1 8 1C6.25375 1 4.48656 1.74563 3.15125 3.04562C1.76406 4.39594 1 6.15625 1 8C1 8.83344 1.27344 9.90906 2.0275 11.9234C2.78156 13.9378 4.28125 14.7812 4.91469 14.9191C5.09625 14.9587 5.30906 15 5.5 15C5.82901 15.0003 6.15231 14.9141 6.4375 14.75L6.875 14.5C7.34594 14.2244 7.48344 13.6209 7.2125 13.1453L4.49625 8.3775C4.43153 8.26341 4.34481 8.1633 4.24112 8.08296C4.13743 8.00262 4.01884 7.94366 3.8922 7.90948C3.76556 7.87529 3.6334 7.86658 3.50337 7.88383C3.37334 7.90109 3.24803 7.94397 3.13469 8.01L2.70688 8.26C2.54245 8.35632 2.3947 8.47864 2.26938 8.62219C2.25382 8.64044 2.23334 8.65383 2.21038 8.66077C2.18742 8.6677 2.16296 8.66789 2.1399 8.6613C2.11684 8.65471 2.09616 8.64163 2.08033 8.62361C2.0645 8.60559 2.05419 8.5834 2.05063 8.55969C2.01913 8.37474 2.0022 8.1876 2 8C2 6.42781 2.65625 4.9225 3.84875 3.76219C5 2.64219 6.51219 2 8 2C9.48781 2 11 2.64219 12.1512 3.76219C13.3438 4.9225 14 6.42781 14 8C13.9972 8.18765 13.9796 8.37479 13.9475 8.55969C13.9439 8.5834 13.9336 8.60559 13.9178 8.62361C13.902 8.64163 13.8813 8.65471 13.8582 8.6613C13.8352 8.66789 13.8107 8.6677 13.7877 8.66077C13.7648 8.65383 13.7443 8.64044 13.7288 8.62219C13.6034 8.47864 13.4557 8.35632 13.2913 8.26L12.8634 8.01C12.7501 7.94397 12.6248 7.90109 12.4948 7.88383C12.3647 7.86658 12.2326 7.87529 12.1059 7.90948C11.9793 7.94366 11.8607 8.00262 11.757 8.08296C11.6533 8.1633 11.5666 8.26341 11.5019 8.3775L8.7875 13.1453C8.51656 13.6209 8.65406 14.2244 9.125 14.5L9.5625 14.75C9.84769 14.9141 10.171 15.0003 10.5 15C10.6909 15 10.9038 14.9587 11.0853 14.9191C11.7188 14.7812 13.2188 13.9375 13.9725 11.9234C14.7262 9.90937 15 8.83344 15 8C15 6.15625 14.2359 4.39594 12.8488 3.04562Z" fill="#FF2259"/>
</svg>