<svg xmlns="http://www.w3.org/2000/svg" width="24" height="24" viewBox="0 0 24 24" fill="none">
  <path d="M15.375 6.00011V21.7501M8.625 2.25011V18.0001M14.6845 5.84261L9.31547 2.40761C9.1019 2.30093 8.86595 2.24677 8.62723 2.24962C8.38852 2.25247 8.15393 2.31226 7.94297 2.42402L2.64891 5.97621C2.52846 6.04001 2.42769 6.13543 2.3574 6.25221C2.28712 6.369 2.24999 6.50272 2.25 6.63902V20.5046C2.24999 20.634 2.28343 20.7611 2.34707 20.8737C2.41071 20.9863 2.50239 21.0806 2.6132 21.1473C2.72402 21.214 2.8502 21.2509 2.97949 21.2544C3.10879 21.258 3.2368 21.228 3.35109 21.1675L7.93641 18.1773C8.14909 18.0646 8.38576 18.0048 8.62644 18.0028C8.86712 18.0009 9.10473 18.0568 9.31922 18.1661L14.5627 21.5879C14.7753 21.6963 15.0107 21.7523 15.2493 21.7514C15.4879 21.7505 15.7229 21.6927 15.9347 21.5828L21.3455 18.0231C21.4674 17.9598 21.5696 17.8643 21.6409 17.7469C21.7123 17.6295 21.75 17.4948 21.75 17.3575V3.49558C21.75 3.36624 21.7166 3.23909 21.6529 3.12649C21.5893 3.01389 21.4976 2.91966 21.3868 2.85295C21.276 2.78625 21.1498 2.74933 21.0205 2.7458C20.8912 2.74226 20.7632 2.77222 20.6489 2.83277L16.0552 5.82621C15.8444 5.93765 15.6102 5.99727 15.3718 6.00013C15.1335 6.00298 14.8979 5.94898 14.6845 5.84261Z" stroke="white" stroke-width="1.5" stroke-linecap="round" stroke-linejoin="round"/>
</svg>