<svg width="100" height="25" viewBox="0 0 100 25" fill="none" xmlns="http://www.w3.org/2000/svg">
<path d="M8.52051 23.5571C7.96902 23.8329 7.46349 23.888 7.00391 23.7226C6.56272 23.5571 6.19506 23.3181 5.90094 23.0056C5.71711 22.8402 5.58843 22.6288 5.51489 22.3714C5.44136 22.1324 5.41379 21.8751 5.43217 21.5993C5.45055 21.3236 5.5057 21.0386 5.59762 20.7445C5.70791 20.4688 5.84579 20.2114 6.01123 19.9724C6.45243 19.3474 6.81089 18.7591 7.08664 18.2077C7.36238 17.6378 7.57379 17.0771 7.72085 16.5256C7.86791 15.9557 7.96902 15.3583 8.02417 14.7333C8.07932 14.1083 8.10689 13.4097 8.10689 12.6376V4.5583H3.14349C2.62877 4.5583 2.20596 4.51234 1.87506 4.42043C1.54417 4.31013 1.28681 4.17225 1.10298 4.00681C0.919149 3.82298 0.790468 3.62077 0.716936 3.40017C0.661787 3.16119 0.634213 2.90383 0.634213 2.62808C0.634213 2.40749 0.661787 2.18689 0.716936 1.9663C0.790468 1.72732 0.919149 1.52511 1.10298 1.35966C1.28681 1.17583 1.54417 1.02877 1.87506 0.918468C2.20596 0.808171 2.62877 0.753022 3.14349 0.753022H10.561C11.0574 0.753022 11.4434 0.808171 11.7191 0.918468C11.9949 1.01038 12.2063 1.14826 12.3534 1.33208C12.5004 1.49753 12.5923 1.70894 12.6291 1.9663C12.6659 2.22366 12.6843 2.51779 12.6843 2.84868V13.6579C12.6843 14.0255 12.6567 14.4851 12.6015 15.0366C12.5464 15.5881 12.4545 16.1855 12.3258 16.8289C12.1971 17.4723 12.0225 18.1341 11.8019 18.8143C11.5997 19.4945 11.3423 20.1379 11.0298 20.7445C10.7173 21.3511 10.3496 21.9026 9.92681 22.399C9.52238 22.8953 9.05362 23.2814 8.52051 23.5571ZM21.3426 24.081C21.0485 24.081 20.7636 24.0443 20.4878 23.9707C20.2305 23.8972 19.9915 23.7685 19.7709 23.5847C19.5687 23.4009 19.4032 23.1527 19.2746 22.8402C19.1643 22.5277 19.1091 22.1324 19.1091 21.6545V2.82111C19.1091 1.90196 19.3297 1.27694 19.7709 0.946042C20.2305 0.596766 20.7544 0.422128 21.3426 0.422128C21.6368 0.422128 21.9125 0.458894 22.1699 0.532426C22.4456 0.605958 22.6846 0.734639 22.8868 0.918468C23.089 1.1023 23.2545 1.35047 23.3831 1.66298C23.5118 1.97549 23.5762 2.36153 23.5762 2.82111V21.6545C23.5762 22.1324 23.5118 22.5277 23.3831 22.8402C23.2545 23.1527 23.089 23.4009 22.8868 23.5847C22.6846 23.7685 22.4456 23.8972 22.1699 23.9707C21.9125 24.0443 21.6368 24.081 21.3426 24.081ZM45.7514 24.3843C45.1632 24.3843 44.6393 24.2097 44.1797 23.8604C43.7385 23.5295 43.5179 22.9045 43.5179 21.9854V18.7867H29.7031C29.1884 18.7867 28.7656 18.7316 28.4347 18.6213C28.1038 18.511 27.8464 18.3731 27.6626 18.2077C27.4787 18.0238 27.3501 17.8216 27.2765 17.601C27.2214 17.362 27.1938 17.1323 27.1938 16.9117C27.1938 16.6359 27.2214 16.3877 27.2765 16.1671C27.3501 15.9282 27.4787 15.726 27.6626 15.5605C27.8464 15.3767 28.1038 15.2388 28.4347 15.1469C28.7656 15.0366 29.1884 14.9814 29.7031 14.9814H45.7514C46.2662 14.9814 46.6706 15.0366 46.9647 15.1469C47.2588 15.2388 47.4794 15.3767 47.6265 15.5605C47.7919 15.726 47.893 15.9282 47.9298 16.1671C47.9666 16.3877 47.985 16.6359 47.985 16.9117V21.9854C47.985 22.4449 47.9206 22.831 47.7919 23.1435C47.6633 23.456 47.4978 23.7042 47.2956 23.888C47.0934 24.0718 46.8544 24.2005 46.5787 24.274C46.3213 24.3476 46.0456 24.3843 45.7514 24.3843ZM32.2399 12.9961C30.0891 12.9961 28.5082 12.5089 27.4971 11.5346C26.5044 10.5603 26.0081 8.9794 26.0081 6.79183C26.0081 4.58587 26.5044 2.99574 27.4971 2.02145C28.4898 1.02877 30.0707 0.532426 32.2399 0.532426C34.4091 0.532426 35.9901 1.02877 36.9827 2.02145C37.9754 2.99574 38.4718 4.58587 38.4718 6.79183C38.4718 7.94996 38.3431 8.93345 38.0857 9.7423C37.8467 10.5328 37.4699 11.167 36.9552 11.6449C36.4588 12.1229 35.8154 12.4722 35.025 12.6928C34.2345 12.895 33.3062 12.9961 32.2399 12.9961ZM32.2399 9.35626C32.9753 9.35626 33.444 9.16323 33.6462 8.77719C33.8668 8.37277 33.9771 7.71098 33.9771 6.79183C33.9771 5.87268 33.8668 5.21089 33.6462 4.80647C33.444 4.40204 32.9753 4.19983 32.2399 4.19983C31.5046 4.19983 31.0267 4.40204 30.8061 4.80647C30.6039 5.21089 30.5027 5.87268 30.5027 6.79183C30.5027 7.71098 30.6039 8.37277 30.8061 8.77719C31.0267 9.16323 31.5046 9.35626 32.2399 9.35626ZM45.8342 13.8509C45.54 13.8509 45.2551 13.8141 44.9793 13.7406C44.722 13.6671 44.483 13.5384 44.2624 13.3546C44.0602 13.1707 43.8947 12.9226 43.7661 12.61C43.6558 12.2975 43.6006 11.9023 43.6006 11.4243V8.80477H41.8083C41.2936 8.80477 40.8799 8.75881 40.5674 8.66689C40.2549 8.5566 40.0067 8.40953 39.8229 8.2257C39.6575 8.04187 39.5472 7.83966 39.492 7.61906C39.4369 7.38009 39.4093 7.12272 39.4093 6.84698C39.4093 6.62638 39.4369 6.40579 39.492 6.18519C39.5472 5.94621 39.6575 5.73481 39.8229 5.55098C40.0067 5.36715 40.2549 5.22008 40.5674 5.10979C40.8799 4.99949 41.2936 4.94434 41.8083 4.94434H43.6006V2.82111C43.6006 1.90196 43.8212 1.27694 44.2624 0.946042C44.722 0.596766 45.2459 0.422128 45.8342 0.422128C46.1283 0.422128 46.404 0.458894 46.6614 0.532426C46.9371 0.605958 47.1761 0.734639 47.3783 0.918468C47.5805 1.1023 47.746 1.35047 47.8747 1.66298C48.0033 1.97549 48.0677 2.36153 48.0677 2.82111V11.4243C48.0677 11.9023 48.0033 12.2975 47.8747 12.61C47.746 12.9226 47.5805 13.1707 47.3783 13.3546C47.1761 13.5384 46.9371 13.6671 46.6614 13.7406C46.404 13.8141 46.1283 13.8509 45.8342 13.8509ZM66.0516 24.081C65.7943 24.081 65.5461 24.0443 65.3071 23.9707C65.0681 23.8972 64.8567 23.7685 64.6729 23.5847C64.5075 23.4009 64.3696 23.1527 64.2593 22.8402C64.149 22.5277 64.0938 22.1324 64.0938 21.6545V2.82111C64.0938 1.90196 64.2869 1.27694 64.6729 0.946042C65.0773 0.596766 65.5369 0.422128 66.0516 0.422128C66.548 0.422128 66.9892 0.596766 67.3752 0.946042C67.7796 1.27694 67.9818 1.90196 67.9818 2.82111V9.96289H69.912V2.82111C69.912 1.90196 70.1051 1.27694 70.4911 0.946042C70.8955 0.596766 71.3551 0.422128 71.8698 0.422128C72.3662 0.422128 72.8074 0.596766 73.1934 0.946042C73.5978 1.27694 73.8 1.90196 73.8 2.82111V21.6545C73.8 22.1324 73.7449 22.5277 73.6346 22.8402C73.5243 23.1527 73.3772 23.4009 73.1934 23.5847C73.028 23.7685 72.8257 23.8972 72.5868 23.9707C72.3478 24.0443 72.1088 24.081 71.8698 24.081C71.6125 24.081 71.3643 24.0443 71.1253 23.9707C70.8863 23.8972 70.6749 23.7685 70.4911 23.5847C70.3257 23.4009 70.1878 23.1527 70.0775 22.8402C69.9672 22.5277 69.912 22.1324 69.912 21.6545V13.7682H67.9818V21.6545C67.9818 22.1324 67.9267 22.5277 67.8164 22.8402C67.7061 23.1527 67.559 23.4009 67.3752 23.5847C67.2097 23.7685 67.0075 23.8972 66.7686 23.9707C66.5296 24.0443 66.2906 24.081 66.0516 24.081ZM56.5109 23.9707C55.4446 23.9707 54.5806 23.8512 53.9189 23.6123C53.2571 23.3733 52.7332 23.0148 52.3471 22.5369C51.9795 22.0773 51.7221 21.4982 51.575 20.7997C51.4463 20.1195 51.382 19.329 51.382 18.4283V15.6432C51.382 14.7241 51.4463 13.9152 51.575 13.2167C51.7037 12.5181 51.9519 11.9299 52.3195 11.4519C52.7056 10.974 53.2295 10.6155 53.8913 10.3765C54.5531 10.1191 55.4263 9.99047 56.5109 9.99047C57.5219 9.99047 58.3583 10.1191 59.0201 10.3765C59.7003 10.6155 60.2334 10.974 60.6195 11.4519C61.0055 11.9299 61.272 12.5273 61.4191 13.2443C61.5846 13.9428 61.6673 14.7425 61.6673 15.6432V18.4283C61.6673 19.3474 61.5937 20.1563 61.4467 20.8548C61.2996 21.5534 61.0331 22.1324 60.647 22.592C60.261 23.0516 59.7371 23.3917 59.0753 23.6123C58.4135 23.8512 57.5587 23.9707 56.5109 23.9707ZM56.5109 20.3033C56.6579 20.3033 56.7866 20.2849 56.8969 20.2482C57.0256 20.2298 57.1359 20.1563 57.2278 20.0276C57.3197 19.8989 57.3932 19.7243 57.4484 19.5037C57.5035 19.2647 57.5403 18.9338 57.5587 18.511V15.4502C57.5587 15.0642 57.5311 14.7517 57.476 14.5127C57.4208 14.2737 57.3473 14.0991 57.2554 13.9888C57.1635 13.8601 57.0532 13.7774 56.9245 13.7406C56.7958 13.7038 56.6579 13.6854 56.5109 13.6854C56.1983 13.6854 55.9502 13.7957 55.7663 14.0163C55.5825 14.2369 55.4906 14.7425 55.4906 15.5329V18.511C55.4906 18.9338 55.509 19.2647 55.5457 19.5037C55.6009 19.7243 55.6652 19.8989 55.7388 20.0276C55.8307 20.1563 55.941 20.2298 56.0697 20.2482C56.1983 20.2849 56.3454 20.3033 56.5109 20.3033ZM52.485 8.85992C51.9703 8.85992 51.5475 8.81396 51.2166 8.72204C50.8857 8.61174 50.6283 8.47387 50.4445 8.30843C50.2606 8.14298 50.132 7.94996 50.0584 7.72936C50.0033 7.50877 49.9757 7.28817 49.9757 7.06757C49.9757 6.79183 50.0033 6.54366 50.0584 6.32306C50.132 6.10247 50.2606 5.90945 50.4445 5.744C50.6283 5.57855 50.8857 5.44987 51.2166 5.35796C51.5475 5.26604 51.9703 5.22009 52.485 5.22009H60.1507C60.6654 5.22009 61.0882 5.26604 61.4191 5.35796C61.75 5.44987 62.0074 5.57855 62.1912 5.744C62.375 5.90945 62.4945 6.10247 62.5497 6.32306C62.6232 6.54366 62.66 6.79183 62.66 7.06757C62.66 7.28817 62.6232 7.50877 62.5497 7.72936C62.4945 7.94996 62.375 8.14298 62.1912 8.30843C62.0074 8.47387 61.75 8.61174 61.4191 8.72204C61.0882 8.81396 60.6654 8.85992 60.1507 8.85992H52.485ZM54.2222 3.75864C53.7075 3.75864 53.2846 3.71268 52.9537 3.62077C52.6229 3.51047 52.3655 3.3726 52.1817 3.20715C51.9978 3.0417 51.8692 2.84868 51.7956 2.62808C51.7405 2.40749 51.7129 2.18689 51.7129 1.9663C51.7129 1.69055 51.7405 1.44238 51.7956 1.22179C51.8692 1.00119 51.9978 0.808171 52.1817 0.642724C52.3655 0.477277 52.6229 0.348596 52.9537 0.256681C53.2846 0.164766 53.7075 0.118809 54.2222 0.118809H58.4135C58.9282 0.118809 59.351 0.164766 59.6819 0.256681C60.0128 0.348596 60.2702 0.477277 60.454 0.642724C60.6378 0.808171 60.7573 1.00119 60.8125 1.22179C60.886 1.44238 60.9228 1.69055 60.9228 1.9663C60.9228 2.18689 60.886 2.40749 60.8125 2.62808C60.7573 2.84868 60.6378 3.0417 60.454 3.20715C60.2702 3.3726 60.0128 3.51047 59.6819 3.62077C59.351 3.71268 58.9282 3.75864 58.4135 3.75864H54.2222ZM77.528 15.202C77.0684 15.202 76.7007 15.1653 76.425 15.0917C76.1493 14.9998 75.9379 14.8803 75.7908 14.7333C75.6437 14.5862 75.5426 14.4116 75.4875 14.2094C75.4507 14.0071 75.4323 13.7774 75.4323 13.52C75.4323 13.3178 75.4507 13.1248 75.4875 12.9409C75.5426 12.7387 75.6437 12.5641 75.7908 12.417C75.9379 12.2516 76.1493 12.1229 76.425 12.031C76.7007 11.9207 77.0684 11.8655 77.528 11.8655H85.2764V10.4592H79.5961C79.0813 10.4592 78.6769 10.4133 78.3828 10.3214C78.0887 10.2111 77.8589 10.0732 77.6934 9.90774C77.5464 9.72391 77.4545 9.5217 77.4177 9.30111C77.3809 9.06213 77.3625 8.80477 77.3625 8.52902V3.01413C77.3625 2.09498 77.5739 1.47915 77.9967 1.16664C78.4379 0.854127 78.9527 0.697872 79.5409 0.697872C79.8167 0.697872 80.0924 0.734638 80.3682 0.80817C80.6439 0.863319 80.8921 0.982809 81.1127 1.16664C81.3333 1.33209 81.5079 1.56187 81.6366 1.856C81.7836 2.15013 81.8572 2.51779 81.8572 2.95898H93.2179C93.2179 2.51779 93.2822 2.15013 93.4109 1.856C93.5579 1.56187 93.7326 1.33209 93.9348 1.16664C94.1554 0.982809 94.4036 0.863319 94.6793 0.80817C94.955 0.734638 95.24 0.697872 95.5341 0.697872C95.8282 0.697872 96.104 0.734638 96.3613 0.80817C96.6187 0.863319 96.8485 0.982809 97.0507 1.16664C97.2529 1.33209 97.4092 1.57106 97.5195 1.88358C97.6482 2.1777 97.7125 2.55455 97.7125 3.01413V8.52902C97.7125 8.80477 97.6941 9.06213 97.6573 9.30111C97.6206 9.5217 97.5195 9.72391 97.354 9.90774C97.207 10.0732 96.9864 10.2111 96.6922 10.3214C96.3981 10.4133 95.9937 10.4592 95.479 10.4592H89.7435V11.8655H97.5746C98.0342 11.8655 98.4019 11.9207 98.6776 12.031C98.9533 12.1229 99.1647 12.2516 99.3118 12.417C99.4589 12.5641 99.5508 12.7387 99.5876 12.9409C99.6427 13.1248 99.6703 13.3178 99.6703 13.52C99.6703 13.7774 99.6427 14.0071 99.5876 14.2094C99.5508 14.4116 99.4589 14.5862 99.3118 14.7333C99.1647 14.8803 98.9533 14.9998 98.6776 15.0917C98.4019 15.1653 98.0342 15.202 97.5746 15.202H77.528ZM79.5961 24.3843C79.0813 24.3843 78.6769 24.3292 78.3828 24.2189C78.0887 24.127 77.8589 23.9891 77.6934 23.8053C77.5464 23.6398 77.4545 23.4376 77.4177 23.1986C77.3809 22.978 77.3625 22.7299 77.3625 22.4541V18.8143C77.3625 18.1157 77.5372 17.5459 77.8865 17.1047C78.2541 16.6451 78.9159 16.4153 79.8718 16.4153H95.5065C96.0213 16.4153 96.4257 16.4705 96.7198 16.5808C97.0139 16.6727 97.2345 16.8106 97.3816 16.9944C97.547 17.1598 97.6482 17.362 97.6849 17.601C97.7217 17.8216 97.7401 18.0698 97.7401 18.3455V21.9854C97.7401 22.9045 97.5011 23.5295 97.0231 23.8604C96.5452 24.2097 95.9477 24.3843 95.2308 24.3843H79.5961ZM93.273 21.0478V19.7518H81.8296V21.0478H93.273ZM93.2179 7.34332V6.07489H81.8572V7.34332H93.2179Z" fill="#FF6B92"/>
</svg>
