<svg width="113" height="33" viewBox="0 0 113 33" fill="none" xmlns="http://www.w3.org/2000/svg">
<path d="M18.7072 31.217V22.9192C13.994 25.7736 7.75404 28.1302 4.10298 28.1302C1.94553 28.1302 0.352341 26.9353 0.352341 24.6451V4.92937L5.03234 4.53107V22.6868C5.03234 23.3175 5.26468 23.7158 6.12766 23.7158C8.41787 23.7158 14.3591 21.2928 18.7072 18.7038V15.4843L11.1728 16.1149V12.0324L18.7072 11.4017V0.979584L23.354 0.581285V30.8187L18.7072 31.217ZM47.0372 31.2502V23.3175C43.7844 25.2094 37.2789 28.1302 33.13 28.1302C30.9725 28.1302 29.3793 26.9353 29.3793 24.6451V4.92937L34.0593 4.53107V22.6868C34.0593 23.3175 34.2917 23.7158 35.1547 23.7158C37.4117 23.7158 43.4525 21.2264 47.0372 19.1353V0.979584L51.684 0.581285V12.7626L55.8993 12.3975V16.5796L51.684 16.9447V30.8519L47.0372 31.2502ZM57.7757 17.9736V14.5217L84.694 12.2647V15.7166L57.7757 17.9736ZM66.671 12.2315C63.1195 12.5302 61.294 11.5013 61.294 9.34384V6.3898L59.6344 6.52256L59.3357 2.97107L81.1757 1.14554L81.4744 4.66384L65.974 5.9915V7.58469C65.974 8.48086 66.3391 8.84597 67.9987 8.7132L82.1382 7.51831V10.937L66.671 12.2315ZM66.671 32.1796C62.9536 32.5115 61.3604 31.6485 61.3604 28.8272V27.3004L59.8004 27.4332L59.4685 24.28L76.5953 22.8528C76.728 22.5209 76.8276 22.1889 76.8276 21.9566C76.8276 21.3924 76.4625 21.16 75.168 21.16C72.5791 21.16 64.8787 22.023 60.7297 22.8196L60.2651 19.766C64.8455 18.8698 72.1144 17.9404 76.4293 17.9404C79.6821 17.9404 81.4412 18.6043 81.4412 20.4962C81.4412 21.1268 81.2421 21.857 81.0097 22.4877L82.2046 22.3881L82.5034 25.5413L66.0072 26.9021V27.6987C66.0072 28.4953 66.3723 28.7941 67.9323 28.6945L83.0012 27.3668V30.7855L66.671 32.1796ZM107.78 31.217V0.979584L112.427 0.581285V30.8187L107.78 31.217ZM95.9967 27.7983C90.4537 28.1966 87.6325 25.0102 87.6325 16.5464C87.6325 8.01618 90.6861 4.53107 96.0299 4.09958C101.108 3.66809 104.228 6.98724 104.228 15.1855C104.228 23.9813 101.175 27.4332 95.9967 27.7983ZM95.9967 23.583C98.2869 23.3838 99.5482 21.5583 99.5482 15.4843C99.5482 9.74214 98.3201 8.11576 96.0299 8.3149C93.7397 8.48086 92.3125 10.2068 92.3125 16.2145C92.3125 22.1226 93.6069 23.8153 95.9967 23.583Z" fill="white"/>
</svg>
