<svg width="89" height="26" viewBox="0 0 89 26" fill="none" xmlns="http://www.w3.org/2000/svg">
<path d="M15.004 24.77V18.27C11.312 20.506 6.424 22.352 3.564 22.352C1.874 22.352 0.626 21.416 0.626 19.622V4.178L4.292 3.866V18.088C4.292 18.582 4.474 18.894 5.15 18.894C6.944 18.894 11.598 16.996 15.004 14.968V12.446L9.102 12.94V9.742L15.004 9.248V1.084L18.644 0.771999V24.458L15.004 24.77ZM37.1958 24.796V18.582C34.6478 20.064 29.5518 22.352 26.3018 22.352C24.6118 22.352 23.3638 21.416 23.3638 19.622V4.178L27.0298 3.866V18.088C27.0298 18.582 27.2118 18.894 27.8878 18.894C29.6558 18.894 34.3878 16.944 37.1958 15.306V1.084L40.8358 0.771999V10.314L44.1378 10.028V13.304L40.8358 13.59V24.484L37.1958 24.796ZM45.6076 14.396V11.692L66.6936 9.924V12.628L45.6076 14.396ZM52.5756 9.898C49.7936 10.132 48.3636 9.326 48.3636 7.636V5.322L47.0636 5.426L46.8296 2.644L63.9376 1.214L64.1716 3.97L52.0296 5.01V6.258C52.0296 6.96 52.3156 7.246 53.6156 7.142L64.6916 6.206V8.884L52.5756 9.898ZM52.5756 25.524C49.6636 25.784 48.4156 25.108 48.4156 22.898V21.702L47.1936 21.806L46.9336 19.336L60.3496 18.218C60.4536 17.958 60.5316 17.698 60.5316 17.516C60.5316 17.074 60.2456 16.892 59.2316 16.892C57.2036 16.892 51.1716 17.568 47.9216 18.192L47.5576 15.8C51.1456 15.098 56.8396 14.37 60.2196 14.37C62.7676 14.37 64.1456 14.89 64.1456 16.372C64.1456 16.866 63.9896 17.438 63.8076 17.932L64.7436 17.854L64.9776 20.324L52.0556 21.39V22.014C52.0556 22.638 52.3416 22.872 53.5636 22.794L65.3676 21.754V24.432L52.5756 25.524ZM84.7774 24.77V1.084L88.4174 0.771999V24.458L84.7774 24.77ZM75.5474 22.092C71.2054 22.404 68.9954 19.908 68.9954 13.278C68.9954 6.596 71.3874 3.866 75.5734 3.528C79.5514 3.19 81.9954 5.79 81.9954 12.212C81.9954 19.102 79.6034 21.806 75.5474 22.092ZM75.5474 18.79C77.3414 18.634 78.3294 17.204 78.3294 12.446C78.3294 7.948 77.3674 6.674 75.5734 6.83C73.7794 6.96 72.6614 8.312 72.6614 13.018C72.6614 17.646 73.6754 18.972 75.5474 18.79Z" fill="black"/>
</svg>
