<svg width="109" height="27" viewBox="0 0 109 27" fill="none" xmlns="http://www.w3.org/2000/svg">
<path d="M9.27 25.87C8.67 26.17 8.12 26.23 7.62 26.05C7.14 25.87 6.74 25.61 6.42 25.27C6.22 25.09 6.08 24.86 6 24.58C5.92 24.32 5.89 24.04 5.91 23.74C5.93 23.44 5.99 23.13 6.09 22.81C6.21 22.51 6.36 22.23 6.54 21.97C7.02 21.29 7.41 20.65 7.71 20.05C8.01 19.43 8.24 18.82 8.4 18.22C8.56 17.6 8.67 16.95 8.73 16.27C8.79 15.59 8.82 14.83 8.82 13.99V5.2H3.42C2.86 5.2 2.4 5.15 2.04 5.05C1.68 4.93 1.4 4.78 1.2 4.6C1 4.4 0.86 4.18 0.78 3.94C0.72 3.68 0.69 3.4 0.69 3.1C0.69 2.86 0.72 2.62 0.78 2.38C0.86 2.12 1 1.9 1.2 1.72C1.4 1.52 1.68 1.36 2.04 1.24C2.4 1.12 2.86 1.06 3.42 1.06H11.49C12.03 1.06 12.45 1.12 12.75 1.24C13.05 1.34 13.28 1.49 13.44 1.69C13.6 1.87 13.7 2.1 13.74 2.38C13.78 2.66 13.8 2.98 13.8 3.34V15.1C13.8 15.5 13.77 16 13.71 16.6C13.65 17.2 13.55 17.85 13.41 18.55C13.27 19.25 13.08 19.97 12.84 20.71C12.62 21.45 12.34 22.15 12 22.81C11.66 23.47 11.26 24.07 10.8 24.61C10.36 25.15 9.85 25.57 9.27 25.87ZM23.22 26.44C22.9 26.44 22.59 26.4 22.29 26.32C22.01 26.24 21.75 26.1 21.51 25.9C21.29 25.7 21.11 25.43 20.97 25.09C20.85 24.75 20.79 24.32 20.79 23.8V3.31C20.79 2.31 21.03 1.63 21.51 1.27C22.01 0.889999 22.58 0.699999 23.22 0.699999C23.54 0.699999 23.84 0.739999 24.12 0.819999C24.42 0.899999 24.68 1.04 24.9 1.24C25.12 1.44 25.3 1.71 25.44 2.05C25.58 2.39 25.65 2.81 25.65 3.31V23.8C25.65 24.32 25.58 24.75 25.44 25.09C25.3 25.43 25.12 25.7 24.9 25.9C24.68 26.1 24.42 26.24 24.12 26.32C23.84 26.4 23.54 26.44 23.22 26.44ZM49.7759 26.77C49.1359 26.77 48.5659 26.58 48.0659 26.2C47.5859 25.84 47.3459 25.16 47.3459 24.16V20.68H32.3159C31.7559 20.68 31.2959 20.62 30.9359 20.5C30.5759 20.38 30.2959 20.23 30.0959 20.05C29.8959 19.85 29.7559 19.63 29.6759 19.39C29.6159 19.13 29.5859 18.88 29.5859 18.64C29.5859 18.34 29.6159 18.07 29.6759 17.83C29.7559 17.57 29.8959 17.35 30.0959 17.17C30.2959 16.97 30.5759 16.82 30.9359 16.72C31.2959 16.6 31.7559 16.54 32.3159 16.54H49.7759C50.3359 16.54 50.7759 16.6 51.0959 16.72C51.4159 16.82 51.6559 16.97 51.8159 17.17C51.9959 17.35 52.1059 17.57 52.1459 17.83C52.1859 18.07 52.2059 18.34 52.2059 18.64V24.16C52.2059 24.66 52.1359 25.08 51.9959 25.42C51.8559 25.76 51.6759 26.03 51.4559 26.23C51.2359 26.43 50.9759 26.57 50.6759 26.65C50.3959 26.73 50.0959 26.77 49.7759 26.77ZM35.0759 14.38C32.7359 14.38 31.0159 13.85 29.9159 12.79C28.8359 11.73 28.2959 10.01 28.2959 7.63C28.2959 5.23 28.8359 3.5 29.9159 2.44C30.9959 1.36 32.7159 0.819999 35.0759 0.819999C37.4359 0.819999 39.1559 1.36 40.2359 2.44C41.3159 3.5 41.8559 5.23 41.8559 7.63C41.8559 8.89 41.7159 9.96 41.4359 10.84C41.1759 11.7 40.7659 12.39 40.2059 12.91C39.6659 13.43 38.9659 13.81 38.1059 14.05C37.2459 14.27 36.2359 14.38 35.0759 14.38ZM35.0759 10.42C35.8759 10.42 36.3859 10.21 36.6059 9.79C36.8459 9.35 36.9659 8.63 36.9659 7.63C36.9659 6.63 36.8459 5.91 36.6059 5.47C36.3859 5.03 35.8759 4.81 35.0759 4.81C34.2759 4.81 33.7559 5.03 33.5159 5.47C33.2959 5.91 33.1859 6.63 33.1859 7.63C33.1859 8.63 33.2959 9.35 33.5159 9.79C33.7559 10.21 34.2759 10.42 35.0759 10.42ZM49.8659 15.31C49.5459 15.31 49.2359 15.27 48.9359 15.19C48.6559 15.11 48.3959 14.97 48.1559 14.77C47.9359 14.57 47.7559 14.3 47.6159 13.96C47.4959 13.62 47.4359 13.19 47.4359 12.67V9.82H45.4859C44.9259 9.82 44.4759 9.77 44.1359 9.67C43.7959 9.55 43.5259 9.39 43.3259 9.19C43.1459 8.99 43.0259 8.77 42.9659 8.53C42.9059 8.27 42.8759 7.99 42.8759 7.69C42.8759 7.45 42.9059 7.21 42.9659 6.97C43.0259 6.71 43.1459 6.48 43.3259 6.28C43.5259 6.08 43.7959 5.92 44.1359 5.8C44.4759 5.68 44.9259 5.62 45.4859 5.62H47.4359V3.31C47.4359 2.31 47.6759 1.63 48.1559 1.27C48.6559 0.889999 49.2259 0.699999 49.8659 0.699999C50.1859 0.699999 50.4859 0.739999 50.7659 0.819999C51.0659 0.899999 51.3259 1.04 51.5459 1.24C51.7659 1.44 51.9459 1.71 52.0859 2.05C52.2259 2.39 52.2959 2.81 52.2959 3.31V12.67C52.2959 13.19 52.2259 13.62 52.0859 13.96C51.9459 14.3 51.7659 14.57 51.5459 14.77C51.3259 14.97 51.0659 15.11 50.7659 15.19C50.4859 15.27 50.1859 15.31 49.8659 15.31ZM71.8617 26.44C71.5817 26.44 71.3117 26.4 71.0517 26.32C70.7917 26.24 70.5617 26.1 70.3617 25.9C70.1817 25.7 70.0317 25.43 69.9117 25.09C69.7917 24.75 69.7317 24.32 69.7317 23.8V3.31C69.7317 2.31 69.9417 1.63 70.3617 1.27C70.8017 0.889999 71.3017 0.699999 71.8617 0.699999C72.4017 0.699999 72.8817 0.889999 73.3017 1.27C73.7417 1.63 73.9617 2.31 73.9617 3.31V11.08H76.0617V3.31C76.0617 2.31 76.2717 1.63 76.6917 1.27C77.1317 0.889999 77.6317 0.699999 78.1917 0.699999C78.7317 0.699999 79.2117 0.889999 79.6317 1.27C80.0717 1.63 80.2917 2.31 80.2917 3.31V23.8C80.2917 24.32 80.2317 24.75 80.1117 25.09C79.9917 25.43 79.8317 25.7 79.6317 25.9C79.4517 26.1 79.2317 26.24 78.9717 26.32C78.7117 26.4 78.4517 26.44 78.1917 26.44C77.9117 26.44 77.6417 26.4 77.3817 26.32C77.1217 26.24 76.8917 26.1 76.6917 25.9C76.5117 25.7 76.3617 25.43 76.2417 25.09C76.1217 24.75 76.0617 24.32 76.0617 23.8V15.22H73.9617V23.8C73.9617 24.32 73.9017 24.75 73.7817 25.09C73.6617 25.43 73.5017 25.7 73.3017 25.9C73.1217 26.1 72.9017 26.24 72.6417 26.32C72.3817 26.4 72.1217 26.44 71.8617 26.44ZM61.4817 26.32C60.3217 26.32 59.3817 26.19 58.6617 25.93C57.9417 25.67 57.3717 25.28 56.9517 24.76C56.5517 24.26 56.2717 23.63 56.1117 22.87C55.9717 22.13 55.9017 21.27 55.9017 20.29V17.26C55.9017 16.26 55.9717 15.38 56.1117 14.62C56.2517 13.86 56.5217 13.22 56.9217 12.7C57.3417 12.18 57.9117 11.79 58.6317 11.53C59.3517 11.25 60.3017 11.11 61.4817 11.11C62.5817 11.11 63.4917 11.25 64.2117 11.53C64.9517 11.79 65.5317 12.18 65.9517 12.7C66.3717 13.22 66.6617 13.87 66.8217 14.65C67.0017 15.41 67.0917 16.28 67.0917 17.26V20.29C67.0917 21.29 67.0117 22.17 66.8517 22.93C66.6917 23.69 66.4017 24.32 65.9817 24.82C65.5617 25.32 64.9917 25.69 64.2717 25.93C63.5517 26.19 62.6217 26.32 61.4817 26.32ZM61.4817 22.33C61.6417 22.33 61.7817 22.31 61.9017 22.27C62.0417 22.25 62.1617 22.17 62.2617 22.03C62.3617 21.89 62.4417 21.7 62.5017 21.46C62.5617 21.2 62.6017 20.84 62.6217 20.38V17.05C62.6217 16.63 62.5917 16.29 62.5317 16.03C62.4717 15.77 62.3917 15.58 62.2917 15.46C62.1917 15.32 62.0717 15.23 61.9317 15.19C61.7917 15.15 61.6417 15.13 61.4817 15.13C61.1417 15.13 60.8717 15.25 60.6717 15.49C60.4717 15.73 60.3717 16.28 60.3717 17.14V20.38C60.3717 20.84 60.3917 21.2 60.4317 21.46C60.4917 21.7 60.5617 21.89 60.6417 22.03C60.7417 22.17 60.8617 22.25 61.0017 22.27C61.1417 22.31 61.3017 22.33 61.4817 22.33ZM57.1017 9.88C56.5417 9.88 56.0817 9.83 55.7217 9.73C55.3617 9.61 55.0817 9.46 54.8817 9.28C54.6817 9.1 54.5417 8.89 54.4617 8.65C54.4017 8.41 54.3717 8.17 54.3717 7.93C54.3717 7.63 54.4017 7.36 54.4617 7.12C54.5417 6.88 54.6817 6.67 54.8817 6.49C55.0817 6.31 55.3617 6.17 55.7217 6.07C56.0817 5.97 56.5417 5.92 57.1017 5.92H65.4417C66.0017 5.92 66.4617 5.97 66.8217 6.07C67.1817 6.17 67.4617 6.31 67.6617 6.49C67.8617 6.67 67.9917 6.88 68.0517 7.12C68.1317 7.36 68.1717 7.63 68.1717 7.93C68.1717 8.17 68.1317 8.41 68.0517 8.65C67.9917 8.89 67.8617 9.1 67.6617 9.28C67.4617 9.46 67.1817 9.61 66.8217 9.73C66.4617 9.83 66.0017 9.88 65.4417 9.88H57.1017ZM58.9917 4.33C58.4317 4.33 57.9717 4.28 57.6117 4.18C57.2517 4.06 56.9717 3.91 56.7717 3.73C56.5717 3.55 56.4317 3.34 56.3517 3.1C56.2917 2.86 56.2617 2.62 56.2617 2.38C56.2617 2.08 56.2917 1.81 56.3517 1.57C56.4317 1.33 56.5717 1.12 56.7717 0.939999C56.9717 0.759999 57.2517 0.619999 57.6117 0.519999C57.9717 0.419999 58.4317 0.37 58.9917 0.37H63.5517C64.1117 0.37 64.5717 0.419999 64.9317 0.519999C65.2917 0.619999 65.5717 0.759999 65.7717 0.939999C65.9717 1.12 66.1017 1.33 66.1617 1.57C66.2417 1.81 66.2817 2.08 66.2817 2.38C66.2817 2.62 66.2417 2.86 66.1617 3.1C66.1017 3.34 65.9717 3.55 65.7717 3.73C65.5717 3.91 65.2917 4.06 64.9317 4.18C64.5717 4.28 64.1117 4.33 63.5517 4.33H58.9917ZM84.3476 16.78C83.8476 16.78 83.4476 16.74 83.1476 16.66C82.8476 16.56 82.6176 16.43 82.4576 16.27C82.2976 16.11 82.1876 15.92 82.1276 15.7C82.0876 15.48 82.0676 15.23 82.0676 14.95C82.0676 14.73 82.0876 14.52 82.1276 14.32C82.1876 14.1 82.2976 13.91 82.4576 13.75C82.6176 13.57 82.8476 13.43 83.1476 13.33C83.4476 13.21 83.8476 13.15 84.3476 13.15H92.7776V11.62H86.5976C86.0376 11.62 85.5976 11.57 85.2776 11.47C84.9576 11.35 84.7076 11.2 84.5276 11.02C84.3676 10.82 84.2676 10.6 84.2276 10.36C84.1876 10.1 84.1676 9.82 84.1676 9.52V3.52C84.1676 2.52 84.3976 1.85 84.8576 1.51C85.3376 1.17 85.8976 0.999999 86.5376 0.999999C86.8376 0.999999 87.1376 1.04 87.4376 1.12C87.7376 1.18 88.0076 1.31 88.2476 1.51C88.4876 1.69 88.6776 1.94 88.8176 2.26C88.9776 2.58 89.0576 2.98 89.0576 3.46H101.418C101.418 2.98 101.488 2.58 101.628 2.26C101.788 1.94 101.978 1.69 102.198 1.51C102.438 1.31 102.708 1.18 103.008 1.12C103.308 1.04 103.618 0.999999 103.938 0.999999C104.258 0.999999 104.558 1.04 104.838 1.12C105.118 1.18 105.368 1.31 105.588 1.51C105.808 1.69 105.978 1.95 106.098 2.29C106.238 2.61 106.308 3.02 106.308 3.52V9.52C106.308 9.82 106.288 10.1 106.248 10.36C106.208 10.6 106.098 10.82 105.918 11.02C105.758 11.2 105.518 11.35 105.198 11.47C104.878 11.57 104.438 11.62 103.878 11.62H97.6376V13.15H106.158C106.658 13.15 107.058 13.21 107.358 13.33C107.658 13.43 107.888 13.57 108.048 13.75C108.208 13.91 108.308 14.1 108.348 14.32C108.408 14.52 108.438 14.73 108.438 14.95C108.438 15.23 108.408 15.48 108.348 15.7C108.308 15.92 108.208 16.11 108.048 16.27C107.888 16.43 107.658 16.56 107.358 16.66C107.058 16.74 106.658 16.78 106.158 16.78H84.3476ZM86.5976 26.77C86.0376 26.77 85.5976 26.71 85.2776 26.59C84.9576 26.49 84.7076 26.34 84.5276 26.14C84.3676 25.96 84.2676 25.74 84.2276 25.48C84.1876 25.24 84.1676 24.97 84.1676 24.67V20.71C84.1676 19.95 84.3576 19.33 84.7376 18.85C85.1376 18.35 85.8576 18.1 86.8976 18.1H103.908C104.468 18.1 104.908 18.16 105.228 18.28C105.548 18.38 105.788 18.53 105.948 18.73C106.128 18.91 106.238 19.13 106.278 19.39C106.318 19.63 106.338 19.9 106.338 20.2V24.16C106.338 25.16 106.078 25.84 105.558 26.2C105.038 26.58 104.388 26.77 103.608 26.77H86.5976ZM101.478 23.14V21.73H89.0276V23.14H101.478ZM101.418 8.23V6.85H89.0576V8.23H101.418Z" fill="white"/>
</svg>
