<svg width="98" height="33" viewBox="0 0 98 33" fill="none" xmlns="http://www.w3.org/2000/svg">
<rect x="0.5" y="0.5" width="97" height="32" rx="15.5" stroke="#00B207"/>
<path d="M23.75 13C23.6275 14.6522 22.375 16 21 16C19.625 16 18.3703 14.6525 18.25 13C18.125 11.2812 19.3437 10 21 10C22.6562 10 23.875 11.3125 23.75 13Z" stroke="#00B207" stroke-linecap="round" stroke-linejoin="round"/>
<path d="M20.9999 18C18.2812 18 15.5218 19.5 15.0112 22.3313C14.9487 22.6725 15.1427 23 15.5002 23H26.4999C26.8574 23 27.0505 22.6725 26.989 22.3313C26.478 19.5 23.7187 18 20.9999 18Z" stroke="#00B207" stroke-miterlimit="10"/>
<path d="M14.7499 14V17.5M16.4999 15.75H12.9999" stroke="#00B207" stroke-linecap="round" stroke-linejoin="round"/>
<path d="M43.0352 10.828H44.7852V19.9261H43.0352V10.828ZM38.3605 16.1215C37.7997 17.2769 36.7942 18.1906 35.3149 18.6112L34.4786 17.2528C36.5331 16.6533 37.4517 15.1934 37.4517 13.7093V13.6271H34.904V12.2638H37.4517V10.8812H39.2162V12.2638H41.7493V13.6271H39.2017V13.7093C39.1968 15.1064 40.1395 16.4793 42.1892 17.0352L41.3626 18.4081C39.9268 18.0069 38.9261 17.1802 38.3605 16.1215ZM38.2106 19.1188V21.6374H45.114V23.0442H36.4461V19.1188H38.2106ZM56.1645 16.837H57.8227V18.2438H52.9691V23.2714H51.2094V18.2438H46.4718V16.837H54.4049C54.7191 15.2272 54.7481 14.009 54.7529 12.9309H47.7723V11.5435H56.4884V12.6602C56.4836 13.8204 56.4836 15.0919 56.1645 16.837ZM70.8332 15.087H69.789V17.8087H68.1696V11.0456H69.789V13.6851H70.8332V10.828H72.4866V17.9054H70.8332V15.087ZM62.2331 11.703H67.1882V17.2431H62.2331V11.703ZM63.8719 15.9378H65.5591V13.0325H63.8719V15.9378ZM72.6219 19.7956H69.2814C69.4748 20.7479 70.7414 21.6616 73.1392 21.8985L72.5591 23.2037C70.4852 22.9959 69.0349 22.2417 68.3098 21.2023C67.5943 22.2562 66.144 22.9959 64.0701 23.2037L63.4852 21.8985C65.9023 21.6616 67.1544 20.7721 67.3477 19.7956H64.0121V18.413H72.6219V19.7956ZM82.5848 23.2617V10.8087H84.3493V23.2617H82.5848ZM74.6034 12.1188H80.6221C80.6172 15.8895 79.2927 19.0269 74.8451 21.125L73.9363 19.7376C77.1462 18.2148 78.5627 16.2521 78.8431 13.4869H74.6034V12.1188Z" fill="#00B207"/>
</svg>
